{"title":"Romanii Au Talent Semifinala2 HDTV 720p H264-playHD","uid":6293567,"size":6210183995,"categoryP":"video","categoryS":"hd___tv_shows","magnet":"?xt=urn:btih:00c26a83314ef2bb9387d9c435bfea4b45180ec4&amp;dn=Romanii+Au+Talent+Semifinala2+HDTV+720p+H264-playHD&amp;tr=udp%3A%2F%2Ftracker.openbittorrent.com%3A80&amp;tr=udp%3A%2F%2Fopen.demonii.com%3A1337&amp;tr=udp%3A%2F%2Ftracker.coppersurfer.tk%3A6969&amp;tr=udp%3A%2F%2Fexodus.desync.com%3A6969","seeders":0,"leechers":0,"uploader":"ToXiC313","files":3,"time":1301876213,"description":"General\nFormat                           : Matroska\nFile size                        : 5.78 GiB\nDuration                         : 2h 37mn\nOverall bit rate                 : 5 258 Kbps\nMovie name                       : Romanii Au Talent Semifinala2 HDTV 1080i H264-playHD\nEncoded date                     : UTC 2011-04-04 01:55:55\nWriting application              : mkvmerge v4.4.0 ('Die Wiederkehr') built on Oct 31 2010 21:52:48\nWriting library                  : libebml v1.0.0 + libmatroska v1.0.0\n\nVideo\nID                               : 1\nFormat                           : AVC\nFormat/Info                      : Advanced Video Codec\nFormat profile                   : &lt;a class=&quot;__cf_email__&quot; href=&quot;/cdn-cgi/l/email-protection&quot; data-cfemail=&quot;c48cada3ac8488f0eaf4&quot;&gt;[email&amp;#160;protected]&lt;/a&gt;&lt;script cf-hash='f9e31' type=&quot;text/javascript&quot;&gt;\n/* &lt;![CDATA[ */!function(){try{var t=&quot;currentScript&quot;in document?document.currentScript:function(){for(var t=document.getElementsByTagName(&quot;script&quot;),e=t.length;e--;)if(t[e].getAttribute(&quot;cf-hash&quot;))return t[e]}();if(t&amp;&amp;t.previousSibling){var e,r,n,i,c=t.previousSibling,a=c.getAttribute(&quot;data-cfemail&quot;);if(a){for(e=&quot;&quot;,r=parseInt(a.substr(0,2),16),n=2;a.length-n;n+=2)i=parseInt(a.substr(n,2),16)^r,e+=String.fromCharCode(i);e=document.createTextNode(e),c.parentNode.replaceChild(e,c)}}}catch(u){}}();/* ]]&gt; */&lt;/script&gt;\nFormat settings, CABAC           : Yes\nFormat settings, ReFrames        : 3 frames\nFormat settings, GOP             : M=2, N=39\nCodec ID                         : V_MPEG4/ISO/AVC\nDuration                         : 2h 37mn\nBit rate mode                    : Variable\nBit rate                         : 5 000 Kbps\nMaximum bit rate                 : 25.0 Mbps\nWidth                            : 1 280 pixels\nHeight                           : 720 pixels\nDisplay aspect ratio             : 16:9\nFrame rate                       : 25.000 fps\nColor space                      : YUV\nChroma subsampling               : 4:2:0\nBit depth                        : 8 bits\nScan type                        : Progressive\nBits/(Pixel*Frame)               : 0.217\nStream size                      : 5.39 GiB (93%)\nWriting library                  : x264 core 112 r1867 22bfd31\n\nAudio\nID                               : 2\nFormat                           : MPEG Audio\nFormat version                   : Version 1\nFormat profile                   : Layer 2\nCodec ID                         : A_MPEG/L2\nCodec ID/Hint                    : MP2\nDuration                         : 2h 37mn\nBit rate mode                    : Constant\nBit rate                         : 256 Kbps\nChannel(s)                       : 2 channels\nSampling rate                    : 48.0 KHz\nCompression mode                 : Lossy\nStream size                      : 288 MiB (5%)\nLanguage                         : Romanian\n\n\n\n","torrent":{"xt":"urn:btih:00c26a83314ef2bb9387d9c435bfea4b45180ec4","amp;dn":"Romanii+Au+Talent+Semifinala2+HDTV+720p+H264-playHD","amp;tr":["udp%3A%2F%2Ftracker.openbittorrent.com%3A80","udp%3A%2F%2Fopen.demonii.com%3A1337","udp%3A%2F%2Ftracker.coppersurfer.tk%3A6969","udp%3A%2F%2Fexodus.desync.com%3A6969"],"infoHash":"00c26a83314ef2bb9387d9c435bfea4b45180ec4","infoHashBuffer":{"type":"Buffer","data":[0,194,106,131,49,78,242,187,147,135,217,196,53,191,234,75,69,24,14,196]},"announce":[],"urlList":[]}}